<?xml version="1.0" encoding="UTF-8"?>
<svg id="Layer_2" data-name="Layer 2" xmlns="http://www.w3.org/2000/svg" viewBox="0 0 371.18 356.99">
  <defs>
    <style>
      .cls-1 {
        fill: #fff;
      }
    </style>
  </defs>
  <g id="Layer_1-2" data-name="Layer 1">
    <g>
      <g>
        <path class="cls-1" d="M370.95,0v7.48h-2.86V3.29h-1.93v3.86h-2.86v-3.86h-4.82V0h12.47Z"/>
        <path class="cls-1" d="M370.95,13.29v3.23l-12.47,5.05v-3.51l2.32-.85v-4.6l-2.32-.85v-3.52l12.47,5.06ZM363.66,13.71v2.41l3.34-1.19v-.03l-3.34-1.19Z"/>
        <path class="cls-1" d="M361.51,29.25c0,.5.08.97.23,1.41s.3.78.45,1.01l-2.79,1.4c-.25-.3-.51-.81-.77-1.53-.26-.72-.39-1.57-.39-2.56,0-.92.16-1.79.48-2.6.32-.81.77-1.53,1.35-2.16.58-.63,1.26-1.12,2.05-1.47.78-.35,1.64-.53,2.57-.53s1.78.18,2.57.53c.79.35,1.48.84,2.06,1.46.58.62,1.04,1.34,1.36,2.16.32.82.49,1.68.49,2.6,0,.98-.13,1.83-.39,2.56-.26.72-.51,1.23-.76,1.53l-2.79-1.4c.15-.23.3-.57.45-1.01.15-.44.23-.91.23-1.41,0-.62-.09-1.15-.27-1.58-.18-.44-.43-.79-.74-1.07-.31-.28-.65-.48-1.03-.61-.38-.13-.76-.19-1.15-.19s-.79.06-1.17.19c-.38.13-.73.33-1.04.61s-.55.63-.74,1.07c-.18.44-.27.97-.27,1.58Z"/>
        <path class="cls-1" d="M368.09,36.93v-2.82h2.86v8.92h-2.86v-2.82h-9.61v-3.29h9.61Z"/>
        <path class="cls-1" d="M364.72,44.13c.91,0,1.75.16,2.54.49s1.47.78,2.06,1.37,1.04,1.27,1.37,2.06c.33.79.49,1.65.49,2.57s-.16,1.79-.49,2.58c-.33.79-.78,1.47-1.37,2.06-.59.59-1.27,1.04-2.06,1.36s-1.63.48-2.54.48-1.76-.16-2.55-.47-1.47-.76-2.06-1.34c-.59-.58-1.05-1.26-1.38-2.06-.33-.79-.49-1.67-.49-2.62s.16-1.87.49-2.66c.33-.79.79-1.48,1.38-2.05.59-.57,1.28-1.01,2.06-1.32s1.63-.46,2.55-.46ZM364.72,47.56c-.63,0-1.2.13-1.72.38-.51.25-.92.61-1.22,1.07-.3.46-.45,1-.45,1.61s.15,1.15.45,1.61c.3.46.71.82,1.22,1.07.51.25,1.08.38,1.72.38s1.2-.13,1.71-.38c.51-.26.92-.61,1.22-1.07.31-.46.46-1,.46-1.61s-.15-1.15-.46-1.61-.71-.82-1.22-1.07-1.08-.38-1.71-.38Z"/>
        <path class="cls-1" d="M370.95,58.54v5.37c0,.74-.16,1.4-.47,1.97s-.76,1.03-1.34,1.36c-.58.33-1.27.5-2.07.5s-1.44-.14-1.94-.41c-.5-.27-.87-.6-1.11-.97-.25-.38-.4-.72-.46-1.04l-5.08,3v-3.69l4.83-2.63v-.16h-4.83v-3.3h12.47ZM365.55,61.84v.89c0,.41.1.78.29,1.12s.57.51,1.12.51.92-.17,1.12-.5c.2-.33.29-.7.29-1.1v-.92h-2.83Z"/>
        <path class="cls-1" d="M362.97,73.27l7.98-4.35v4l-4.24,1.98,4.24,1.99v3.98l-7.98-4.32h-4.49v-3.29h4.49Z"/>
        <path class="cls-1" d="M371.18,91.68c0,.79-.09,1.48-.26,2.09-.17.61-.36,1.1-.55,1.47-.19.37-.32.6-.38.68l-2.65-1.57c.08-.1.19-.27.33-.52s.26-.53.37-.85c.11-.32.17-.63.17-.95,0-.4-.06-.73-.19-.99-.13-.25-.33-.38-.6-.38-.19,0-.36.07-.51.21-.15.14-.3.36-.45.67-.15.31-.31.71-.49,1.21-.16.47-.36.91-.6,1.32-.23.41-.51.76-.83,1.06-.32.3-.69.54-1.11.71-.42.17-.88.26-1.41.26-.67,0-1.24-.14-1.71-.41s-.86-.64-1.17-1.11c-.3-.46-.53-.98-.67-1.56-.14-.58-.22-1.17-.22-1.78,0-.89.1-1.69.3-2.4.2-.7.41-1.27.65-1.7.23-.43.39-.69.48-.78l2.75,1.62c-.06.07-.15.22-.27.44-.13.23-.26.5-.4.82-.14.32-.25.65-.35,1.01-.09.35-.14.69-.14,1,0,.48.08.83.24,1.07.16.23.38.35.67.35.21,0,.4-.07.56-.22s.33-.38.5-.71c.17-.33.35-.77.56-1.31.21-.54.47-1.05.78-1.53.31-.48.71-.86,1.2-1.16.49-.3,1.1-.45,1.83-.45s1.37.21,1.9.62.94.95,1.23,1.62c.29.67.43,1.38.43,2.14Z"/>
        <path class="cls-1" d="M370.95,97.68v8.19h-2.86v-4.9h-1.97v4.89h-2.77v-4.89h-2v4.9h-2.86v-8.19h12.47Z"/>
        <path class="cls-1" d="M361.51,114.67c0,.5.08.97.23,1.41s.3.78.45,1.01l-2.79,1.4c-.25-.3-.51-.81-.77-1.53-.26-.72-.39-1.57-.39-2.56,0-.92.16-1.79.48-2.6.32-.81.77-1.53,1.35-2.16.58-.63,1.26-1.12,2.05-1.47.78-.35,1.64-.53,2.57-.53s1.78.18,2.57.53c.79.35,1.48.84,2.06,1.46.58.62,1.04,1.34,1.36,2.16.32.82.49,1.68.49,2.6,0,.98-.13,1.83-.39,2.56-.26.72-.51,1.23-.76,1.53l-2.79-1.4c.15-.23.3-.57.45-1.01.15-.44.23-.91.23-1.41,0-.62-.09-1.15-.27-1.58-.18-.44-.43-.79-.74-1.07-.31-.28-.65-.48-1.03-.61-.38-.13-.76-.19-1.15-.19s-.79.06-1.17.19c-.38.13-.73.33-1.04.61s-.55.63-.74,1.07c-.18.44-.27.97-.27,1.58Z"/>
        <path class="cls-1" d="M364.72,119.8c.91,0,1.75.16,2.54.49s1.47.78,2.06,1.37,1.04,1.27,1.37,2.06c.33.79.49,1.65.49,2.57s-.16,1.79-.49,2.58c-.33.79-.78,1.47-1.37,2.06-.59.59-1.27,1.04-2.06,1.36s-1.63.48-2.54.48-1.76-.16-2.55-.47-1.47-.76-2.06-1.34c-.59-.58-1.05-1.26-1.38-2.06-.33-.79-.49-1.67-.49-2.62s.16-1.87.49-2.66c.33-.79.79-1.48,1.38-2.05.59-.57,1.28-1.01,2.06-1.32s1.63-.46,2.55-.46ZM364.72,123.23c-.63,0-1.2.13-1.72.38-.51.25-.92.61-1.22,1.07-.3.46-.45,1-.45,1.61s.15,1.15.45,1.61c.3.46.71.82,1.22,1.07.51.25,1.08.38,1.72.38s1.2-.13,1.71-.38c.51-.26.92-.61,1.22-1.07.31-.46.46-1,.46-1.61s-.15-1.15-.46-1.61-.71-.82-1.22-1.07-1.08-.38-1.71-.38Z"/>
        <path class="cls-1" d="M367.96,137.33l-.05.25h-9.43v-3.29h12.47v4.46l-9.41,4.51-.05-.24h9.46v3.28h-12.47v-4.48l9.48-4.49Z"/>
        <path class="cls-1" d="M370.95,148.33v4.06c0,1.33-.27,2.43-.8,3.31s-1.27,1.54-2.21,1.98-2.01.66-3.22.66-2.29-.22-3.23-.66c-.94-.44-1.68-1.1-2.21-1.98-.54-.88-.8-1.98-.8-3.31v-4.06h12.47ZM368.05,151.61h-6.67v.48c0,.6.15,1.11.44,1.52s.69.71,1.2.93c.5.21,1.07.32,1.69.32s1.2-.1,1.7-.31c.5-.21.9-.52,1.2-.93.3-.41.44-.92.44-1.52v-.48Z"/>
        <path class="cls-1" d="M371.18,164.64c0,.79-.09,1.48-.26,2.09-.17.61-.36,1.1-.55,1.47-.19.37-.32.6-.38.68l-2.65-1.57c.08-.1.19-.27.33-.52s.26-.53.37-.85c.11-.32.17-.63.17-.95,0-.4-.06-.73-.19-.99-.13-.25-.33-.38-.6-.38-.19,0-.36.07-.51.21-.15.14-.3.36-.45.67-.15.31-.31.71-.49,1.21-.16.47-.36.91-.6,1.32-.23.41-.51.76-.83,1.06-.32.3-.69.54-1.11.71-.42.17-.88.26-1.41.26-.67,0-1.24-.14-1.71-.41s-.86-.64-1.17-1.11c-.3-.46-.53-.98-.67-1.56-.14-.58-.22-1.17-.22-1.78,0-.89.1-1.69.3-2.4.2-.7.41-1.27.65-1.7.23-.43.39-.69.48-.78l2.75,1.62c-.06.07-.15.22-.27.44-.13.23-.26.5-.4.82-.14.32-.25.65-.35,1.01-.09.35-.14.69-.14,1,0,.48.08.83.24,1.07.16.23.38.35.67.35.21,0,.4-.07.56-.22s.33-.38.5-.71c.17-.33.35-.77.56-1.31.21-.54.47-1.05.78-1.53.31-.48.71-.86,1.2-1.16.49-.3,1.1-.45,1.83-.45s1.37.21,1.9.62.94.95,1.23,1.62c.29.67.43,1.38.43,2.14Z"/>
        <path class="cls-1" d="M358.25,172.67c0-.52.18-.96.55-1.33.37-.37.81-.55,1.33-.55s.98.18,1.35.55.55.81.55,1.33-.18.97-.55,1.34-.82.55-1.35.55-.96-.18-1.33-.55c-.37-.37-.55-.81-.55-1.34Z"/>
        <path class="cls-1" d="M370.95,181.57v7.48h-2.86v-4.2h-1.93v3.86h-2.86v-3.86h-4.82v-3.29h12.47Z"/>
        <path class="cls-1" d="M370.95,190.8v3.29h-12.47v-3.29h12.47Z"/>
        <path class="cls-1" d="M370.95,196v5.37c0,.74-.16,1.4-.47,1.97s-.76,1.03-1.34,1.36c-.58.33-1.27.5-2.07.5s-1.44-.14-1.94-.41c-.5-.27-.87-.6-1.11-.97-.25-.38-.4-.72-.46-1.04l-5.08,3v-3.69l4.83-2.63v-.16h-4.83v-3.3h12.47ZM365.55,199.3v.89c0,.41.1.78.29,1.12s.57.51,1.12.51.92-.17,1.12-.5c.2-.33.29-.7.29-1.1v-.92h-2.83Z"/>
        <path class="cls-1" d="M371.18,212.33c0,.79-.09,1.48-.26,2.09-.17.61-.36,1.1-.55,1.47-.19.37-.32.6-.38.68l-2.65-1.57c.08-.1.19-.27.33-.52s.26-.53.37-.85c.11-.32.17-.63.17-.95,0-.4-.06-.73-.19-.99-.13-.25-.33-.38-.6-.38-.19,0-.36.07-.51.21-.15.14-.3.36-.45.67-.15.31-.31.71-.49,1.21-.16.47-.36.91-.6,1.32-.23.41-.51.76-.83,1.06-.32.3-.69.54-1.11.71-.42.17-.88.26-1.41.26-.67,0-1.24-.14-1.71-.41s-.86-.64-1.17-1.11c-.3-.46-.53-.98-.67-1.56-.14-.58-.22-1.17-.22-1.78,0-.89.1-1.69.3-2.4.2-.7.41-1.27.65-1.7.23-.43.39-.69.48-.78l2.75,1.62c-.06.07-.15.22-.27.44-.13.23-.26.5-.4.82-.14.32-.25.65-.35,1.01-.09.35-.14.69-.14,1,0,.48.08.83.24,1.07.16.23.38.35.67.35.21,0,.4-.07.56-.22s.33-.38.5-.71c.17-.33.35-.77.56-1.31.21-.54.47-1.05.78-1.53.31-.48.71-.86,1.2-1.16.49-.3,1.1-.45,1.83-.45s1.37.21,1.9.62.94.95,1.23,1.62c.29.67.43,1.38.43,2.14Z"/>
        <path class="cls-1" d="M368.09,220.56v-2.82h2.86v8.92h-2.86v-2.82h-9.61v-3.29h9.61Z"/>
        <path class="cls-1" d="M361.51,240.02c0,.5.08.97.23,1.41s.3.78.45,1.01l-2.79,1.4c-.25-.3-.51-.81-.77-1.53-.26-.72-.39-1.57-.39-2.56,0-.92.16-1.79.48-2.6.32-.81.77-1.53,1.35-2.16.58-.63,1.26-1.12,2.05-1.47.78-.35,1.64-.53,2.57-.53s1.78.18,2.57.53c.79.35,1.48.84,2.06,1.46.58.62,1.04,1.34,1.36,2.16.32.82.49,1.68.49,2.6,0,.98-.13,1.83-.39,2.56-.26.72-.51,1.23-.76,1.53l-2.79-1.4c.15-.23.3-.57.45-1.01.15-.44.23-.91.23-1.41,0-.62-.09-1.15-.27-1.58-.18-.44-.43-.79-.74-1.07-.31-.28-.65-.48-1.03-.61-.38-.13-.76-.19-1.15-.19s-.79.06-1.17.19c-.38.13-.73.33-1.04.61s-.55.63-.74,1.07c-.18.44-.27.97-.27,1.58Z"/>
        <path class="cls-1" d="M370.95,245.58v3.29h-9.61v4.38h-2.86v-7.67h12.47Z"/>
        <path class="cls-1" d="M370.95,259.12v3.23l-12.47,5.05v-3.51l2.32-.85v-4.6l-2.32-.85v-3.52l12.47,5.06ZM363.66,259.54v2.41l3.34-1.19v-.03l-3.34-1.19Z"/>
        <path class="cls-1" d="M371.18,273.07c0,.79-.09,1.49-.26,2.09-.17.61-.36,1.1-.55,1.47-.19.37-.32.6-.38.68l-2.65-1.57c.08-.1.19-.27.33-.52.14-.25.26-.53.37-.85.11-.32.17-.63.17-.95,0-.4-.06-.73-.19-.99-.13-.25-.33-.38-.6-.38-.19,0-.36.07-.51.21-.15.14-.3.36-.45.67s-.31.71-.49,1.21c-.16.47-.36.91-.6,1.32-.23.41-.51.76-.83,1.06-.32.3-.69.54-1.11.71-.42.17-.88.26-1.41.26-.67,0-1.24-.14-1.71-.41-.48-.27-.86-.64-1.17-1.11-.3-.46-.53-.98-.67-1.56-.14-.58-.22-1.17-.22-1.78,0-.89.1-1.69.3-2.4.2-.7.41-1.27.65-1.7.23-.43.39-.69.48-.78l2.75,1.62c-.06.07-.15.22-.27.44s-.26.5-.4.82c-.14.32-.25.65-.35,1.01-.09.35-.14.69-.14,1,0,.48.08.83.24,1.07.16.23.38.35.67.35.21,0,.4-.07.56-.22.17-.15.33-.38.5-.71.17-.33.35-.77.56-1.31.21-.54.47-1.05.78-1.53.31-.48.71-.86,1.2-1.16.49-.3,1.1-.45,1.83-.45s1.37.21,1.9.62c.53.41.94.95,1.23,1.62.29.67.43,1.38.43,2.13Z"/>
        <path class="cls-1" d="M371.18,283.88c0,.79-.09,1.49-.26,2.09-.17.61-.36,1.1-.55,1.47-.19.37-.32.6-.38.68l-2.65-1.57c.08-.1.19-.27.33-.52.14-.25.26-.53.37-.85.11-.32.17-.63.17-.95,0-.4-.06-.73-.19-.99-.13-.25-.33-.38-.6-.38-.19,0-.36.07-.51.21-.15.14-.3.36-.45.67s-.31.71-.49,1.21c-.16.47-.36.91-.6,1.32-.23.41-.51.76-.83,1.06-.32.3-.69.54-1.11.71-.42.17-.88.26-1.41.26-.67,0-1.24-.14-1.71-.41-.48-.27-.86-.64-1.17-1.11-.3-.46-.53-.98-.67-1.56-.14-.58-.22-1.17-.22-1.78,0-.89.1-1.69.3-2.4.2-.7.41-1.27.65-1.7.23-.43.39-.69.48-.78l2.75,1.62c-.06.07-.15.22-.27.44s-.26.5-.4.82c-.14.32-.25.65-.35,1.01-.09.35-.14.69-.14,1,0,.48.08.83.24,1.07.16.23.38.35.67.35.21,0,.4-.07.56-.22.17-.15.33-.38.5-.71.17-.33.35-.77.56-1.31.21-.54.47-1.05.78-1.53.31-.48.71-.86,1.2-1.16.49-.3,1.1-.45,1.83-.45s1.37.21,1.9.62c.53.41.94.95,1.23,1.62.29.67.43,1.38.43,2.13Z"/>
        <path class="cls-1" d="M365.53,301.11v6.38h-.83c-.91,0-1.75-.15-2.53-.44-.78-.3-1.46-.72-2.05-1.28-.59-.56-1.05-1.22-1.38-2-.33-.78-.49-1.64-.49-2.59s.17-1.88.5-2.67c.33-.79.79-1.48,1.38-2.04.59-.57,1.28-1.01,2.06-1.31.78-.31,1.63-.46,2.54-.46s1.74.15,2.53.46c.78.3,1.47.74,2.06,1.31.59.57,1.05,1.25,1.38,2.04.33.79.49,1.69.49,2.67,0,.85-.09,1.59-.28,2.23-.19.64-.43,1.18-.72,1.62s-.62.81-.97,1.11-.68.54-1,.72l-1.45-3.15c.35-.21.66-.51.94-.9s.42-.94.42-1.63c0-.46-.09-.88-.27-1.25-.18-.37-.42-.7-.74-.97-.31-.27-.67-.48-1.08-.62-.41-.14-.84-.22-1.3-.22s-.9.07-1.31.22c-.41.14-.77.35-1.08.62-.31.27-.56.59-.73.97-.18.38-.26.79-.26,1.25,0,.38.04.72.11,1.03.08.31.19.57.34.79.15.22.33.4.54.53.21.13.45.21.71.25v-2.66h2.49Z"/>
        <path class="cls-1" d="M370.95,313.16v3.23l-12.47,5.05v-3.51l2.32-.85v-4.6l-2.32-.85v-3.52l12.47,5.06ZM363.66,313.57v2.41l3.34-1.19v-.03l-3.34-1.19Z"/>
        <path class="cls-1" d="M370.95,322.39v3.29h-12.47v-3.29h12.47Z"/>
        <path class="cls-1" d="M367.96,330.71l-.05.25h-9.43v-3.29h12.47v4.46l-9.41,4.51-.05-.24h9.46v3.28h-12.47v-4.48l9.48-4.49Z"/>
        <path class="cls-1" d="M371.18,346.46c0,.79-.09,1.49-.26,2.09-.17.61-.36,1.1-.55,1.47-.19.37-.32.6-.38.68l-2.65-1.57c.08-.1.19-.27.33-.52.14-.25.26-.53.37-.85.11-.32.17-.63.17-.95,0-.4-.06-.73-.19-.99-.13-.25-.33-.38-.6-.38-.19,0-.36.07-.51.21-.15.14-.3.36-.45.67s-.31.71-.49,1.21c-.16.47-.36.91-.6,1.32-.23.41-.51.76-.83,1.06-.32.3-.69.54-1.11.71-.42.17-.88.26-1.41.26-.67,0-1.24-.14-1.71-.41-.48-.27-.86-.64-1.17-1.11-.3-.46-.53-.98-.67-1.56-.14-.58-.22-1.17-.22-1.78,0-.89.1-1.69.3-2.4.2-.7.41-1.27.65-1.7.23-.43.39-.69.48-.78l2.75,1.62c-.06.07-.15.22-.27.44s-.26.5-.4.82c-.14.32-.25.65-.35,1.01-.09.35-.14.69-.14,1,0,.48.08.83.24,1.07.16.23.38.35.67.35.21,0,.4-.07.56-.22.17-.15.33-.38.5-.71.17-.33.35-.77.56-1.31.21-.54.47-1.05.78-1.53.31-.48.71-.86,1.2-1.16.49-.3,1.1-.45,1.83-.45s1.37.21,1.9.62c.53.41.94.95,1.23,1.62.29.67.43,1.38.43,2.13Z"/>
        <path class="cls-1" d="M358.25,354.49c0-.52.18-.96.55-1.33s.81-.55,1.33-.55.98.18,1.35.55c.37.37.55.81.55,1.33s-.18.97-.55,1.34-.82.55-1.35.55-.96-.18-1.33-.55c-.37-.37-.55-.81-.55-1.34Z"/>
      </g>
      <g>
        <path class="cls-1" d="M16.08,20.87H.4V1.34h57.68v19.54h-15.55v88.12h-26.45V20.87Z"/>
        <path class="cls-1" d="M67.78,1.34h26.32v42.66h13.42V1.34h26.45v107.65h-26.45v-46.12h-13.42v46.12h-26.32V1.34Z"/>
        <path class="cls-1" d="M150.18,1.34h50.37v17.68h-24.06v24.06h17.94v18.34h-17.94v30.04h24.19v17.54h-50.5V1.34Z"/>
        <path class="cls-1" d="M6.91,125.34h38.94c19.27,0,28.84,11.3,28.84,31.63,0,27.11-15.15,31.63-32.56,31.63h-8.9v44.39H6.91v-107.65ZM41.6,170.26c7.58,0,8.37-5.05,8.37-13.82,0-5.98-.67-12.63-8.64-12.63h-8.11v26.45h8.37Z"/>
        <path class="cls-1" d="M86.25,125.34h26.32v90.11h23.92v17.54h-50.24v-107.65Z"/>
        <path class="cls-1" d="M161.48,125.34h30.7l19.27,107.65h-24.06l-3.32-21.53h-13.96l-3.32,21.53h-24.85l19.54-107.65ZM181.81,196.31l-4.78-40.14-4.79,40.14h9.57Z"/>
        <path class="cls-1" d="M225.41,144.87h-15.68v-19.54h57.68v19.54h-15.55v88.12h-26.45v-88.12Z"/>
        <path class="cls-1" d="M276.57,125.34h50.37v17.68h-24.06v24.06h17.94v18.34h-17.94v30.04h24.19v17.54h-50.5v-107.65Z"/>
        <path class="cls-1" d="M19.67,311.27L0,249.34h24.85l8.51,28.84,7.04-28.84h23.79l-19.27,61.93v45.72h-25.25v-45.72Z"/>
        <path class="cls-1" d="M81.6,249.34h30.7l19.27,107.65h-24.06l-3.32-21.53h-13.96l-3.32,21.53h-24.85l19.54-107.65ZM101.94,320.31l-4.78-40.14-4.78,40.14h9.57Z"/>
        <path class="cls-1" d="M142.47,249.34h32.03c21.66,0,36.95,5.18,36.95,28.44,0,13.42-2.26,22.06-13.16,27.64l14.62,51.57h-27.51l-11.16-47.58h-5.45v47.58h-26.32v-107.65ZM175.7,294.92c9.17,0,11.43-6.11,11.43-14.35s-2.53-13.82-10.23-13.82h-8.11v28.18h6.91Z"/>
        <path class="cls-1" d="M225.41,249.34h28.31c29.37,0,37.48,9.83,37.48,34.42v38.81c0,24.59-8.11,34.42-37.48,34.42h-28.31v-107.65ZM254.11,338.78c9.04,0,9.97-3.06,9.97-10.5v-50.5c0-7.31-.93-10.23-9.97-10.23h-2.39v71.24h2.39Z"/>
      </g>
    </g>
  </g>
</svg>