<?xml version="1.0" encoding="UTF-8"?>
<svg id="Layer_2" data-name="Layer 2" xmlns="http://www.w3.org/2000/svg" viewBox="0 0 889.81 178.3">
  <defs>
    <style>
      .cls-1 {
        fill: #fff;
      }
    </style>
  </defs>
  <g id="Layer_1-2" data-name="Layer 1">
    <g id="The_Plate_Yard_-_Horizontal" data-name="The Plate Yard - Horizontal">
      <g>
        <path class="cls-1" d="M15.7,134.89h19.04v7.02h-8.6v9.76h7.75v7.28h-7.75v18.67h-10.44v-42.72Z"/>
        <path class="cls-1" d="M43.39,134.89h12.18l7.65,42.72h-9.55l-1.32-8.55h-5.54l-1.32,8.55h-9.86l7.75-42.72ZM51.46,163.05l-1.9-15.93-1.9,15.93h3.8Z"/>
        <path class="cls-1" d="M66.22,164v-15.45c0-8.91,3.27-14.3,13.19-14.3s12.76,5.22,12.76,12.34v3.8h-10.29v-4.64c0-1.85-.05-4.27-2.48-4.27s-2.58,2.43-2.58,4.27v20.99c0,1.9.21,4.27,2.58,4.27s2.48-2.43,2.48-4.27v-4.85h10.29v3.8c0,7.12-2.85,12.61-12.76,12.61s-13.19-5.43-13.19-14.29Z"/>
        <path class="cls-1" d="M100.82,142.64h-6.22v-7.75h22.89v7.75h-6.17v34.97h-10.5v-34.97Z"/>
        <path class="cls-1" d="M120.07,164.16v-15.77c0-8.97,3.27-14.14,13.19-14.14s13.24,5.17,13.24,14.14v15.77c0,8.91-3.32,14.14-13.24,14.14s-13.19-5.22-13.19-14.14ZM135.79,166.8v-21.1c0-1.85-.16-4.22-2.53-4.22s-2.48,2.37-2.48,4.22v21.1c0,1.79.05,4.22,2.48,4.22s2.53-2.43,2.53-4.22Z"/>
        <path class="cls-1" d="M152.19,134.89h12.71c8.6,0,14.66,2.06,14.66,11.29,0,5.33-.9,8.76-5.22,10.97l5.8,20.47h-10.92l-4.43-18.88h-2.16v18.88h-10.44v-42.72ZM165.38,152.98c3.64,0,4.54-2.43,4.54-5.7s-1-5.49-4.06-5.49h-3.22v11.18h2.74Z"/>
        <path class="cls-1" d="M188.84,159.47l-7.81-24.58h9.86l3.38,11.45,2.8-11.45h9.44l-7.65,24.58v18.14h-10.02v-18.14Z"/>
        <path class="cls-1" d="M223.07,164.43l8.86-1.16c.05,5.8,1.37,7.12,3.06,7.12s1.74-1.58,1.74-2.53c0-3.48-1.74-5.59-4.75-8.12l-2.69-2.27c-3.38-2.85-6.22-6.22-6.22-11.66,0-7.49,4.85-11.55,12.55-11.55,9.81,0,10.55,8.18,10.6,12.45l-9.07.9c0-3.69-.05-5.8-1.9-5.8-1.42,0-1.95,1.95-1.95,2.95,0,3.32,1.9,5.06,4.54,7.38l2.48,2.16c3.8,3.27,6.75,7.02,6.75,13.08s-4.38,10.92-11.45,10.92c-8.28,0-12.29-3.75-12.55-13.87Z"/>
        <path class="cls-1" d="M251.66,134.89h19.99v7.02h-9.55v9.55h7.12v7.28h-7.12v11.92h9.6v6.96h-20.04v-42.72Z"/>
        <path class="cls-1" d="M275.34,164v-15.45c0-8.91,3.27-14.3,13.19-14.3s12.76,5.22,12.76,12.34v3.8h-10.29v-4.64c0-1.85-.05-4.27-2.48-4.27s-2.58,2.43-2.58,4.27v20.99c0,1.9.21,4.27,2.58,4.27s2.48-2.43,2.48-4.27v-4.85h10.29v3.8c0,7.12-2.85,12.61-12.76,12.61s-13.19-5.43-13.19-14.29Z"/>
        <path class="cls-1" d="M305.77,164.16v-15.77c0-8.97,3.27-14.14,13.19-14.14s13.24,5.17,13.24,14.14v15.77c0,8.91-3.32,14.14-13.24,14.14s-13.19-5.22-13.19-14.14ZM321.49,166.8v-21.1c0-1.85-.16-4.22-2.53-4.22s-2.48,2.37-2.48,4.22v21.1c0,1.79.05,4.22,2.48,4.22s2.53-2.43,2.53-4.22Z"/>
        <path class="cls-1" d="M337.89,134.89h7.38l7.81,18.3v-18.3h8.65v42.72h-7.17l-7.7-20.1v20.1h-8.97v-42.72Z"/>
        <path class="cls-1" d="M367.95,134.89h11.23c11.66,0,14.87,3.9,14.87,13.66v15.4c0,9.76-3.22,13.66-14.87,13.66h-11.23v-42.72ZM379.34,170.39c3.59,0,3.96-1.21,3.96-4.17v-20.04c0-2.9-.37-4.06-3.96-4.06h-.95v28.27h.95Z"/>
        <path class="cls-1" d="M398.9,164.43l8.86-1.16c.05,5.8,1.37,7.12,3.06,7.12s1.74-1.58,1.74-2.53c0-3.48-1.74-5.59-4.75-8.12l-2.69-2.27c-3.38-2.85-6.22-6.22-6.22-11.66,0-7.49,4.85-11.55,12.55-11.55,9.81,0,10.55,8.18,10.6,12.45l-9.07.9c0-3.69-.05-5.8-1.9-5.8-1.42,0-1.95,1.95-1.95,2.95,0,3.32,1.9,5.06,4.54,7.38l2.48,2.16c3.8,3.27,6.75,7.02,6.75,13.08s-4.38,10.92-11.45,10.92c-8.28,0-12.29-3.75-12.55-13.87Z"/>
        <path class="cls-1" d="M426.75,168.96h8.86v8.65h-8.86v-8.65Z"/>
        <path class="cls-1" d="M455.13,134.89h19.04v7.02h-8.6v9.76h7.75v7.28h-7.75v18.67h-10.44v-42.72Z"/>
        <path class="cls-1" d="M478.7,134.89h10.44v42.72h-10.44v-42.72Z"/>
        <path class="cls-1" d="M495.37,134.89h12.71c8.6,0,14.66,2.06,14.66,11.29,0,5.33-.9,8.76-5.22,10.97l5.8,20.47h-10.92l-4.43-18.88h-2.16v18.88h-10.44v-42.72ZM508.55,152.98c3.64,0,4.54-2.43,4.54-5.7s-1-5.49-4.06-5.49h-3.22v11.18h2.74Z"/>
        <path class="cls-1" d="M527.17,164.43l8.86-1.16c.05,5.8,1.37,7.12,3.06,7.12s1.74-1.58,1.74-2.53c0-3.48-1.74-5.59-4.75-8.12l-2.69-2.27c-3.38-2.85-6.22-6.22-6.22-11.66,0-7.49,4.85-11.55,12.55-11.55,9.81,0,10.55,8.18,10.6,12.45l-9.07.9c0-3.69-.05-5.8-1.9-5.8-1.42,0-1.95,1.95-1.95,2.95,0,3.32,1.9,5.06,4.54,7.38l2.48,2.16c3.8,3.27,6.75,7.02,6.75,13.08s-4.38,10.92-11.45,10.92c-8.28,0-12.29-3.75-12.55-13.87Z"/>
        <path class="cls-1" d="M559.39,142.64h-6.22v-7.75h22.89v7.75h-6.17v34.97h-10.5v-34.97Z"/>
        <path class="cls-1" d="M593.09,164v-15.45c0-8.91,3.27-14.3,13.19-14.3s12.76,5.22,12.76,12.34v3.8h-10.29v-4.64c0-1.85-.05-4.27-2.48-4.27s-2.58,2.43-2.58,4.27v20.99c0,1.9.21,4.27,2.58,4.27s2.48-2.43,2.48-4.27v-4.85h10.29v3.8c0,7.12-2.85,12.61-12.76,12.61s-13.19-5.43-13.19-14.29Z"/>
        <path class="cls-1" d="M624.05,134.89h10.44v35.76h9.49v6.96h-19.94v-42.72Z"/>
        <path class="cls-1" d="M653.9,134.89h12.18l7.65,42.72h-9.55l-1.32-8.55h-5.54l-1.32,8.55h-9.86l7.75-42.72ZM661.97,163.05l-1.9-15.93-1.9,15.93h3.8Z"/>
        <path class="cls-1" d="M676.68,164.43l8.86-1.16c.05,5.8,1.37,7.12,3.06,7.12s1.74-1.58,1.74-2.53c0-3.48-1.74-5.59-4.75-8.12l-2.69-2.27c-3.38-2.85-6.22-6.22-6.22-11.66,0-7.49,4.85-11.55,12.55-11.55,9.81,0,10.55,8.18,10.6,12.45l-9.07.9c0-3.69-.05-5.8-1.9-5.8-1.42,0-1.95,1.95-1.95,2.95,0,3.32,1.9,5.06,4.54,7.38l2.48,2.16c3.8,3.27,6.75,7.02,6.75,13.08s-4.38,10.92-11.45,10.92c-8.28,0-12.29-3.75-12.55-13.87Z"/>
        <path class="cls-1" d="M703.37,164.43l8.86-1.16c.05,5.8,1.37,7.12,3.06,7.12s1.74-1.58,1.74-2.53c0-3.48-1.74-5.59-4.75-8.12l-2.69-2.27c-3.38-2.85-6.22-6.22-6.22-11.66,0-7.49,4.85-11.55,12.55-11.55,9.81,0,10.55,8.18,10.6,12.45l-9.07.9c0-3.69-.05-5.8-1.9-5.8-1.42,0-1.95,1.95-1.95,2.95,0,3.32,1.9,5.06,4.54,7.38l2.48,2.16c3.8,3.27,6.75,7.02,6.75,13.08s-4.38,10.92-11.45,10.92c-8.28,0-12.29-3.75-12.55-13.87Z"/>
        <path class="cls-1" d="M745.35,163.42v-14.35c0-8.97,3.27-14.82,13.24-14.82s12.87,5.38,12.87,12.5v3.06h-10.29v-4.06c0-1.9-.05-4.27-2.48-4.27s-2.64,2.43-2.64,4.27v20.94c0,1.9.53,4.33,2.95,4.33s3.06-2.43,3.06-4.33v-5.59h-3.43v-5.96h12.82v22.47h-6.96l-.53-3.11c-1.11,2.16-3.06,3.8-6.7,3.8-9.07,0-11.92-6.17-11.92-14.87Z"/>
        <path class="cls-1" d="M783.06,134.89h12.18l7.65,42.72h-9.55l-1.32-8.55h-5.54l-1.32,8.55h-9.86l7.75-42.72ZM791.13,163.05l-1.9-15.93-1.9,15.93h3.8Z"/>
        <path class="cls-1" d="M807.21,134.89h10.44v42.72h-10.44v-42.72Z"/>
        <path class="cls-1" d="M823.88,134.89h7.38l7.81,18.3v-18.3h8.65v42.72h-7.17l-7.7-20.1v20.1h-8.97v-42.72Z"/>
        <path class="cls-1" d="M853.1,164.43l8.86-1.16c.05,5.8,1.37,7.12,3.06,7.12s1.74-1.58,1.74-2.53c0-3.48-1.74-5.59-4.75-8.12l-2.69-2.27c-3.38-2.85-6.22-6.22-6.22-11.66,0-7.49,4.85-11.55,12.55-11.55,9.81,0,10.55,8.18,10.6,12.45l-9.07.9c0-3.69-.05-5.8-1.9-5.8-1.42,0-1.95,1.95-1.95,2.95,0,3.32,1.9,5.06,4.54,7.38l2.48,2.16c3.8,3.27,6.75,7.02,6.75,13.08s-4.38,10.92-11.45,10.92c-8.28,0-12.29-3.75-12.55-13.87Z"/>
        <path class="cls-1" d="M880.94,168.96h8.86v8.65h-8.86v-8.65Z"/>
      </g>
      <g>
        <path class="cls-1" d="M15.58,19.4H0V0h57.29v19.4h-15.44v87.52H15.58V19.4Z"/>
        <path class="cls-1" d="M66.92,0h26.14v42.37h13.33V0h26.27v106.92h-26.27v-45.81h-13.33v45.81h-26.14V0Z"/>
        <path class="cls-1" d="M148.76,0h50.03v17.56h-23.89v23.89h17.82v18.22h-17.82v29.83h24.02v17.42h-50.16V0Z"/>
        <path class="cls-1" d="M244.2,0h38.68c19.14,0,28.65,11.22,28.65,31.42,0,26.93-15.05,31.42-32.34,31.42h-8.84v44.09h-26.14V0ZM278.65,44.62c7.52,0,8.32-5.02,8.32-13.73,0-5.94-.66-12.54-8.58-12.54h-8.05v26.27h8.32Z"/>
        <path class="cls-1" d="M323,0h26.14v89.5h23.76v17.42h-49.9V0Z"/>
        <path class="cls-1" d="M397.71,0h30.49l19.14,106.92h-23.89l-3.3-21.38h-13.86l-3.3,21.38h-24.68L397.71,0ZM417.91,70.49l-4.75-39.87-4.75,39.87h9.5Z"/>
        <path class="cls-1" d="M461.2,19.4h-15.58V0h57.29v19.4h-15.44v87.52h-26.27V19.4Z"/>
        <path class="cls-1" d="M512.02,0h50.03v17.56h-23.89v23.89h17.82v18.22h-17.82v29.83h24.02v17.42h-50.16V0Z"/>
        <path class="cls-1" d="M620.13,61.51L600.59,0h24.68l8.45,28.64,7-28.64h23.63l-19.14,61.51v45.41h-25.08v-45.41Z"/>
        <path class="cls-1" d="M681.64,0h30.49l19.14,106.92h-23.89l-3.3-21.38h-13.86l-3.3,21.38h-24.68L681.64,0ZM701.84,70.49l-4.75-39.87-4.75,39.87h9.5Z"/>
        <path class="cls-1" d="M742.1,0h31.81c21.52,0,36.7,5.15,36.7,28.25,0,13.33-2.24,21.91-13.07,27.46l14.52,51.22h-27.32l-11.09-47.26h-5.41v47.26h-26.14V0ZM775.1,45.28c9.11,0,11.35-6.07,11.35-14.26s-2.51-13.73-10.16-13.73h-8.05v27.99h6.86Z"/>
        <path class="cls-1" d="M824.46,0h28.12c29.17,0,37.22,9.77,37.22,34.19v38.54c0,24.42-8.05,34.19-37.22,34.19h-28.12V0ZM852.98,88.84c8.98,0,9.9-3.04,9.9-10.43V28.25c0-7.26-.92-10.17-9.9-10.17h-2.38v70.75h2.38Z"/>
      </g>
    </g>
  </g>
</svg>