<svg width="200" height="41" viewBox="0 0 200 41" fill="none" xmlns="http://www.w3.org/2000/svg">
<g clip-path="url(#clip0_49_327)">
<path d="M3.52888 30.3192H7.8085V31.8971H5.87548V34.0908H7.61744V35.7271H5.87548V39.9236H3.52888V30.3214V30.3192Z" fill="white"/>
<path d="M9.75276 30.3192H12.4905L14.2099 39.9213H12.0634L11.7667 37.9995H10.5215L10.2248 39.9213H8.00854L9.75051 30.3192H9.75276ZM11.5666 36.6487L11.1396 33.0681L10.7125 36.6487H11.5666Z" fill="white"/>
<path d="M14.8842 36.8622V33.3895C14.8842 31.3868 15.6192 30.1753 17.849 30.1753C20.0787 30.1753 20.717 31.3486 20.717 32.949V33.8031H18.4041V32.7602C18.4041 32.3443 18.3929 31.8004 17.8467 31.8004C17.3005 31.8004 17.2668 32.3466 17.2668 32.7602V37.4781C17.2668 37.9051 17.314 38.4378 17.8467 38.4378C18.3794 38.4378 18.4041 37.8917 18.4041 37.4781V36.3879H20.717V37.2421C20.717 38.8424 20.0764 40.0764 17.849 40.0764C15.6215 40.0764 14.8842 38.8559 14.8842 36.8645V36.8622Z" fill="white"/>
<path d="M22.6613 32.0611H21.2632V30.3192H26.4082V32.0611H25.0214V39.9213H22.6613V32.0611Z" fill="white"/>
<path d="M26.9881 36.8982V33.3536C26.9881 31.3374 27.7231 30.1753 29.9528 30.1753C32.1825 30.1753 32.9288 31.3374 32.9288 33.3536V36.8982C32.9288 38.9009 32.1825 40.0764 29.9528 40.0764C27.7231 40.0764 26.9881 38.9031 26.9881 36.8982ZM30.5215 37.4916V32.7489C30.5215 32.3331 30.4855 31.8004 29.9528 31.8004C29.4201 31.8004 29.3954 32.3331 29.3954 32.7489V37.4916C29.3954 37.8939 29.4066 38.4401 29.9528 38.4401C30.499 38.4401 30.5215 37.8939 30.5215 37.4916Z" fill="white"/>
<path d="M34.2077 30.3192H37.0645C38.9975 30.3192 40.3596 30.7822 40.3596 32.8568C40.3596 34.0548 40.1573 34.8258 39.1863 35.3225L40.49 39.9236H38.0355L37.0398 35.6799H36.5543V39.9236H34.2077V30.3214V30.3192ZM37.1724 34.3852C37.9906 34.3852 38.1929 33.8391 38.1929 33.1041C38.1929 32.3691 37.9681 31.8701 37.2803 31.8701H36.5565V34.383H37.1724V34.3852Z" fill="white"/>
<path d="M42.4455 35.844L40.69 30.3192H42.9063L43.666 32.8928L44.2954 30.3192H46.4172L44.6977 35.844V39.9213H42.4455V35.844Z" fill="white"/>
<path d="M50.1394 36.9589L52.1308 36.6981C52.1421 38.0018 52.4388 38.2985 52.8186 38.2985C53.1985 38.2985 53.2097 37.9434 53.2097 37.7298C53.2097 36.9476 52.8186 36.4734 52.1421 35.9047L51.5374 35.3945C50.7777 34.7539 50.1394 33.9964 50.1394 32.7736C50.1394 31.0901 51.2295 30.1776 52.9602 30.1776C55.1652 30.1776 55.3316 32.0162 55.3428 32.9759L53.3041 33.1782C53.3041 32.3488 53.2929 31.8746 52.8771 31.8746C52.5579 31.8746 52.4388 32.3129 52.4388 32.5376C52.4388 33.2839 52.8658 33.675 53.4592 34.1964L54.0166 34.6819C54.8708 35.4169 55.5338 36.2598 55.5338 37.6219C55.5338 38.984 54.5494 40.0764 52.9602 40.0764C51.0991 40.0764 50.1978 39.2335 50.1394 36.9589Z" fill="white"/>
<path d="M56.5655 30.3192H61.0587V31.8971H58.9121V34.0436H60.5125V35.6799H58.9121V38.3592H61.0699V39.9236H56.5655V30.3214V30.3192Z" fill="white"/>
<path d="M61.8881 36.8622V33.3895C61.8881 31.3868 62.6231 30.1753 64.8528 30.1753C67.0825 30.1753 67.7208 31.3486 67.7208 32.949V33.8031H65.408V32.7602C65.408 32.3443 65.3967 31.8004 64.8505 31.8004C64.3043 31.8004 64.2706 32.3466 64.2706 32.7602V37.4781C64.2706 37.9051 64.3178 38.4378 64.8505 38.4378C65.3832 38.4378 65.408 37.8917 65.408 37.4781V36.3879H67.7208V37.2421C67.7208 38.8424 67.0802 40.0764 64.8528 40.0764C62.6253 40.0764 61.8881 38.8559 61.8881 36.8645V36.8622Z" fill="white"/>
<path d="M68.7278 36.8982V33.3536C68.7278 31.3374 69.4628 30.1753 71.6925 30.1753C73.9222 30.1753 74.6685 31.3374 74.6685 33.3536V36.8982C74.6685 38.9009 73.9222 40.0764 71.6925 40.0764C69.4628 40.0764 68.7278 38.9031 68.7278 36.8982ZM72.2612 37.4916V32.7489C72.2612 32.3331 72.2252 31.8004 71.6925 31.8004C71.1598 31.8004 71.1351 32.3331 71.1351 32.7489V37.4916C71.1351 37.8939 71.1463 38.4401 71.6925 38.4401C72.2387 38.4401 72.2612 37.8939 72.2612 37.4916Z" fill="white"/>
<path d="M75.9474 30.3192H77.6062L79.3617 34.4325V30.3192H81.3059V39.9213H79.6943L77.9636 35.4035V39.9213H75.9474V30.3192Z" fill="white"/>
<path d="M82.704 30.3192H85.2281C87.849 30.3192 88.5705 31.1958 88.5705 33.3895V36.851C88.5705 39.0447 87.8467 39.9213 85.2281 39.9213H82.704V30.3192ZM85.2641 38.2985C86.071 38.2985 86.1542 38.0265 86.1542 37.3612V32.8568C86.1542 32.205 86.071 31.9443 85.2641 31.9443H85.0506V38.2985H85.2641Z" fill="white"/>
<path d="M89.6606 36.9589L91.6521 36.6981C91.6633 38.0018 91.96 38.2985 92.3399 38.2985C92.7197 38.2985 92.731 37.9434 92.731 37.7298C92.731 36.9476 92.3399 36.4734 91.6633 35.9047L91.0587 35.3945C90.2989 34.7539 89.6606 33.9964 89.6606 32.7736C89.6606 31.0901 90.7507 30.1776 92.4815 30.1776C94.6865 30.1776 94.8528 32.0162 94.864 32.9759L92.8254 33.1782C92.8254 32.3488 92.8141 31.8746 92.3983 31.8746C92.0791 31.8746 91.96 32.3129 91.96 32.5376C91.96 33.2839 92.3871 33.675 92.9805 34.1964L93.5379 34.6819C94.392 35.4169 95.0551 36.2598 95.0551 37.6219C95.0551 38.984 94.0706 40.0764 92.4815 40.0764C90.6204 40.0764 89.719 39.2335 89.6606 36.9589Z" fill="white"/>
<path d="M95.9204 37.9771H97.9119V39.9213H95.9204V37.9771Z" fill="white"/>
<path d="M102.299 30.3192H106.579V31.8971H104.646V34.0908H106.388V35.7271H104.646V39.9236H102.299V30.3214V30.3192Z" fill="white"/>
<path d="M107.597 30.3192H109.944V39.9213H107.597V30.3192Z" fill="white"/>
<path d="M111.344 30.3192H114.201C116.134 30.3192 117.496 30.7822 117.496 32.8568C117.496 34.0548 117.294 34.8258 116.323 35.3225L117.626 39.9236H115.172L114.176 35.6799H113.691V39.9236H111.344V30.3214V30.3192ZM114.307 34.3852C115.125 34.3852 115.327 33.8391 115.327 33.1041C115.327 32.3691 115.102 31.8701 114.414 31.8701H113.691V34.383H114.307V34.3852Z" fill="white"/>
<path d="M118.492 36.9589L120.483 36.6981C120.494 38.0018 120.791 38.2985 121.171 38.2985C121.551 38.2985 121.562 37.9434 121.562 37.7298C121.562 36.9476 121.171 36.4734 120.494 35.9047L119.89 35.3945C119.13 34.7539 118.492 33.9964 118.492 32.7736C118.492 31.0901 119.582 30.1776 121.313 30.1776C123.518 30.1776 123.684 32.0162 123.695 32.9759L121.657 33.1782C121.657 32.3488 121.645 31.8746 121.229 31.8746C120.91 31.8746 120.791 32.3129 120.791 32.5376C120.791 33.2839 121.218 33.675 121.812 34.1964L122.369 34.6819C123.223 35.4169 123.886 36.2598 123.886 37.6219C123.886 38.984 122.902 40.0764 121.313 40.0764C119.452 40.0764 118.55 39.2335 118.492 36.9589Z" fill="white"/>
<path d="M125.734 32.0611H124.336V30.3192H129.481V32.0611H128.094V39.9213H125.734V32.0611Z" fill="white"/>
<path d="M133.309 36.8622V33.3895C133.309 31.3868 134.044 30.1753 136.273 30.1753C138.503 30.1753 139.141 31.3486 139.141 32.949V33.8031H136.829V32.7602C136.829 32.3443 136.817 31.8004 136.271 31.8004C135.725 31.8004 135.691 32.3466 135.691 32.7602V37.4781C135.691 37.9051 135.738 38.4378 136.271 38.4378C136.804 38.4378 136.829 37.8917 136.829 37.4781V36.3879H139.141V37.2421C139.141 38.8424 138.501 40.0764 136.273 40.0764C134.046 40.0764 133.309 38.8559 133.309 36.8645V36.8622Z" fill="white"/>
<path d="M140.267 30.3192H142.614V38.3569H144.747V39.9213H140.265V30.3192H140.267Z" fill="white"/>
<path d="M146.977 30.3192H149.715L151.434 39.9213H149.288L148.991 37.9995H147.746L147.449 39.9213H145.233L146.975 30.3192H146.977ZM148.791 36.6487L148.364 33.0681L147.937 36.6487H148.791Z" fill="white"/>
<path d="M152.097 36.9589L154.089 36.6981C154.1 38.0018 154.396 38.2985 154.776 38.2985C155.156 38.2985 155.167 37.9434 155.167 37.7298C155.167 36.9476 154.776 36.4734 154.1 35.9047L153.495 35.3945C152.735 34.7539 152.097 33.9964 152.097 32.7736C152.097 31.0901 153.187 30.1776 154.918 30.1776C157.123 30.1776 157.289 32.0162 157.301 32.9759L155.262 33.1782C155.262 32.3488 155.251 31.8746 154.835 31.8746C154.516 31.8746 154.396 32.3129 154.396 32.5376C154.396 33.2839 154.824 33.675 155.417 34.1964L155.974 34.6819C156.829 35.4169 157.492 36.2598 157.492 37.6219C157.492 38.984 156.507 40.0764 154.918 40.0764C153.057 40.0764 152.156 39.2335 152.097 36.9589Z" fill="white"/>
<path d="M158.096 36.9589L160.088 36.6981C160.099 38.0018 160.396 38.2985 160.775 38.2985C161.155 38.2985 161.167 37.9434 161.167 37.7298C161.167 36.9476 160.775 36.4734 160.099 35.9047L159.494 35.3945C158.735 34.7539 158.096 33.9964 158.096 32.7736C158.096 31.0901 159.186 30.1776 160.917 30.1776C163.122 30.1776 163.288 32.0162 163.3 32.9759L161.261 33.1782C161.261 32.3488 161.25 31.8746 160.834 31.8746C160.515 31.8746 160.396 32.3129 160.396 32.5376C160.396 33.2839 160.823 33.675 161.416 34.1964L161.973 34.6819C162.828 35.4169 163.491 36.2598 163.491 37.6219C163.491 38.984 162.506 40.0764 160.917 40.0764C159.056 40.0764 158.155 39.2335 158.096 36.9589Z" fill="white"/>
<path d="M167.532 36.7318V33.5064C167.532 31.4902 168.267 30.1753 170.508 30.1753C172.749 30.1753 173.401 31.3846 173.401 32.9849V33.6727H171.088V32.7602C171.088 32.3331 171.077 31.8004 170.53 31.8004C169.984 31.8004 169.937 32.3466 169.937 32.7602V37.4668C169.937 37.8939 170.056 38.4401 170.6 38.4401C171.144 38.4401 171.288 37.8939 171.288 37.4668V36.2104H170.517V34.8708H173.399V39.9213H171.834L171.715 39.2223C171.465 39.7078 171.027 40.0764 170.209 40.0764C168.17 40.0764 167.53 38.6896 167.53 36.7341L167.532 36.7318Z" fill="white"/>
<path d="M176.008 30.3192H178.746L180.465 39.9213H178.319L178.022 37.9995H176.777L176.48 39.9213H174.264L176.006 30.3192H176.008ZM177.822 36.6487L177.395 33.0681L176.968 36.6487H177.822Z" fill="white"/>
<path d="M181.436 30.3192H183.783V39.9213H181.436V30.3192Z" fill="white"/>
<path d="M185.183 30.3192H186.842L188.597 34.4325V30.3192H190.542V39.9213H188.93L187.199 35.4035V39.9213H185.183V30.3192Z" fill="white"/>
<path d="M191.751 36.9589L193.742 36.6981C193.754 38.0018 194.05 38.2985 194.43 38.2985C194.81 38.2985 194.821 37.9434 194.821 37.7298C194.821 36.9476 194.43 36.4734 193.754 35.9047L193.149 35.3945C192.389 34.7539 191.751 33.9964 191.751 32.7736C191.751 31.0901 192.841 30.1776 194.572 30.1776C196.777 30.1776 196.943 32.0162 196.954 32.9759L194.916 33.1782C194.916 32.3488 194.905 31.8746 194.489 31.8746C194.17 31.8746 194.05 32.3129 194.05 32.5376C194.05 33.2839 194.477 33.675 195.071 34.1964L195.628 34.6819C196.482 35.4169 197.145 36.2598 197.145 37.6219C197.145 38.984 196.161 40.0764 194.572 40.0764C192.711 40.0764 191.809 39.2335 191.751 36.9589Z" fill="white"/>
<path d="M198.009 37.9771H200V39.9213H198.009V37.9771Z" fill="white"/>
<path d="M3.50191 4.36053H0V0H12.8771V4.36053H9.40661V24.0324H3.50191V4.36053Z" fill="white"/>
<path d="M15.0416 0H20.9171V9.52349H23.9132V0H29.8179V24.0324H23.9132V13.7357H20.9171V24.0324H15.0416V0Z" fill="white"/>
<path d="M33.4367 0H44.6819V3.94695H39.3122V9.3167H43.3176V13.412H39.3122V20.1169H44.7112V24.0324H33.4367V0Z" fill="white"/>
<path d="M54.8887 0H63.5828C67.8849 0 70.0225 2.52191 70.0225 7.06226C70.0225 13.1153 66.6397 14.1245 62.7534 14.1245H60.7665V24.0346H54.891V0H54.8887ZM62.6321 10.0292C64.3223 10.0292 64.5021 8.90088 64.5021 6.94313C64.5021 5.608 64.3538 4.12452 62.5736 4.12452H60.7642V10.0292H62.6343H62.6321Z" fill="white"/>
<path d="M72.6006 0H78.4761V20.1169H83.8166V24.0324H72.6006V0Z" fill="white"/>
<path d="M89.3931 0H96.2464L100.548 24.0324H95.1787L94.437 19.2268H91.3216L90.5799 24.0324H85.0326L89.3931 0ZM93.9335 15.844L92.8658 6.88245L91.7982 15.844H93.9335Z" fill="white"/>
<path d="M103.664 4.36053H100.162V0H113.039V4.36053H109.568V24.0324H103.664V4.36053Z" fill="white"/>
<path d="M115.087 0H126.332V3.94695H120.962V9.3167H124.967V13.412H120.962V20.1169H126.361V24.0324H115.087V0Z" fill="white"/>
<path d="M139.386 13.8256L134.994 0H140.542L142.441 6.4374L144.014 0H149.326L145.024 13.8256V24.0324H139.386V13.8256Z" fill="white"/>
<path d="M153.212 0H160.065L164.367 24.0324H158.998L158.256 19.2268H155.14L154.399 24.0324H148.851L153.212 0ZM157.752 15.844L156.685 6.88245L155.617 15.844H157.752Z" fill="white"/>
<path d="M166.802 0H173.951C178.788 0 182.2 1.15756 182.2 6.34974C182.2 9.34592 181.697 11.2744 179.263 12.5219L182.526 24.0346H176.386L173.893 13.412H172.677V24.0346H166.802V0ZM174.219 10.1776C176.267 10.1776 176.77 8.81322 176.77 6.97235C176.77 5.13149 176.206 3.88627 174.486 3.88627H172.677V10.1776H174.219Z" fill="white"/>
<path d="M185.314 0H191.634C198.191 0 200 2.196 200 7.68487V16.3475C200 21.8364 198.191 24.0324 191.634 24.0324H185.314V0ZM191.724 19.9685C193.742 19.9685 193.949 19.2852 193.949 17.6242V6.34974C193.949 4.71791 193.742 4.06383 191.724 4.06383H191.189V19.9663H191.724V19.9685Z" fill="white"/>
</g>
<defs>
<clipPath id="clip0_49_327">
<rect width="200" height="40.0764" fill="white"/>
</clipPath>
</defs>
</svg>
